<svg width="20" height="20" viewBox="0 0 20 20" fill="none" xmlns="http://www.w3.org/2000/svg">
<path d="M2.18749 9.99999C2.18749 9.75135 2.28627 9.5129 2.46208 9.33708C2.6379 9.16127 2.87635 9.06249 3.12499 9.06249L14.6094 9.06249L10.5844 5.03828C10.4082 4.86215 10.3093 4.62329 10.3093 4.37421C10.3093 4.12514 10.4082 3.88627 10.5844 3.71015C10.7605 3.53403 10.9994 3.43509 11.2484 3.43509C11.4975 3.43509 11.7364 3.53403 11.9125 3.71015L17.5375 9.33515C17.6249 9.42225 17.6942 9.52574 17.7416 9.6397C17.7889 9.75365 17.8132 9.87582 17.8132 9.99921C17.8132 10.1226 17.7889 10.2448 17.7416 10.3587C17.6942 10.4727 17.6249 10.5762 17.5375 10.6633L11.9125 16.2883C11.8253 16.3755 11.7218 16.4447 11.6078 16.4919C11.4939 16.539 11.3718 16.5633 11.2484 16.5633C11.1251 16.5633 11.003 16.539 10.889 16.4919C10.7751 16.4447 10.6716 16.3755 10.5844 16.2883C10.4972 16.2011 10.428 16.0975 10.3808 15.9836C10.3336 15.8697 10.3093 15.7475 10.3093 15.6242C10.3093 15.5009 10.3336 15.3788 10.3808 15.2648C10.428 15.1509 10.4972 15.0474 10.5844 14.9602L14.6094 10.9375L3.12499 10.9375C2.87635 10.9375 2.6379 10.8387 2.46208 10.6629C2.28627 10.4871 2.18749 10.2486 2.18749 9.99999Z" fill="#246175"/>
</svg>
