<svg width="50" height="50" viewBox="0 0 50 50" fill="none" xmlns="http://www.w3.org/2000/svg">
<path fill-rule="evenodd" clip-rule="evenodd" d="M27.6183 1.69228C26.1887 0.202388 23.8062 0.202388 22.3765 1.69228L20.5368 3.60952C19.6466 4.53719 18.3324 4.92518 17.0811 4.62971L14.5132 4.02331C12.5122 3.5508 10.5182 4.83179 10.1162 6.84811L9.57993 9.53737C9.33078 10.7868 8.44522 11.8144 7.24625 12.2453L4.69778 13.1612C2.77816 13.8512 1.80288 15.9861 2.53815 17.8888L3.54522 20.4949C4.00101 21.6744 3.8106 23.0061 3.04251 24.0106L1.35136 26.2223C0.115118 27.839 0.448322 30.1559 2.09007 31.3587L4.31016 32.9853C5.33305 33.7347 5.89107 34.9633 5.78238 36.2267L5.54423 38.9948C5.36872 41.0348 6.9132 42.8167 8.95749 42.9327L11.6189 43.0836C12.8975 43.1562 14.0434 43.8966 14.6349 45.0325L15.8806 47.4245C16.8332 49.2538 19.116 49.9239 20.9062 48.8996L23.1936 47.5909C24.3112 46.9515 25.6837 46.9515 26.8013 47.5909L29.0887 48.8996C30.8789 49.9239 33.1617 49.2538 34.1143 47.4245L35.36 45.0324C35.9515 43.8966 37.0974 43.1562 38.3759 43.0836L41.0374 42.9327C43.0817 42.8167 44.6262 41.0348 44.4506 38.9948L44.2125 36.2267C44.1038 34.9633 44.6618 33.7347 45.6847 32.9853L47.9048 31.3587C49.5466 30.1559 49.8798 27.839 48.6435 26.2223L46.9524 24.0106C46.1843 23.0061 45.9939 21.6744 46.4497 20.4949L47.4567 17.8888C48.192 15.9861 47.2167 13.8512 45.2971 13.1612L42.7486 12.2453C41.5497 11.8144 40.6641 10.7868 40.4149 9.53737L39.8787 6.84811C39.4766 4.83179 37.4827 3.5508 35.4817 4.02331L32.9137 4.62971C31.6625 4.92518 30.3482 4.53719 29.4581 3.60952L27.6183 1.69228ZM18.1754 25.3446C17.5312 24.6868 16.4868 24.6868 15.8426 25.3446C15.1984 26.0024 15.1984 27.0689 15.8426 27.7267L20.3037 32.2821C20.5342 32.5174 20.8159 32.6686 21.1121 32.7355C21.7005 32.9636 22.391 32.8357 22.8649 32.3518L33.4833 21.5089C34.1275 20.8511 34.1275 19.7847 33.4833 19.1269C32.8391 18.4691 31.7947 18.4691 31.1506 19.1269L21.6184 28.8605L18.1754 25.3446ZM25.0352 42.8416C34.7989 42.8416 42.7139 34.8422 42.7139 24.9745C42.7139 15.1068 34.7989 7.10746 25.0352 7.10746C15.2716 7.10746 7.35654 15.1068 7.35654 24.9745C7.35654 34.8422 15.2716 42.8416 25.0352 42.8416ZM25.0352 39.2682C17.2243 39.2682 10.8923 32.8687 10.8923 24.9745C10.8923 17.0804 17.2243 10.6809 25.0352 10.6809C32.8462 10.6809 39.1782 17.0804 39.1782 24.9745C39.1782 32.8687 32.8462 39.2682 25.0352 39.2682Z" fill="url(#paint0_linear_18_73)"/>
<defs>
<linearGradient id="paint0_linear_18_73" x1="5.94453" y1="1.12667" x2="41.1871" y2="51.6158" gradientUnits="userSpaceOnUse">
<stop stop-color="#FFD979"/>
<stop offset="1" stop-color="#ECAF17"/>
</linearGradient>
</defs>
</svg>
