<svg width="32" height="32" viewBox="0 0 32 32" fill="none" xmlns="http://www.w3.org/2000/svg">
<rect width="32" height="32" rx="16" fill="#F7F9FC"/>
<path d="M16.7017 19.7017C16.61 19.7946 16.5007 19.8683 16.3802 19.9186C16.2598 19.969 16.1305 19.9949 16 19.9949C15.8695 19.9949 15.7402 19.969 15.6198 19.9186C15.4993 19.8683 15.39 19.7946 15.2983 19.7017L9.28362 13.687C9.10061 13.5003 8.99869 13.2489 9.00001 12.9874C9.00133 12.7259 9.10579 12.4756 9.29067 12.2907C9.47556 12.1058 9.72594 12.0013 9.98741 12C10.2489 11.9987 10.5003 12.1006 10.687 12.2836L16 17.5765L21.313 12.2836C21.4997 12.1006 21.7511 11.9987 22.0126 12C22.2741 12.0013 22.5244 12.1058 22.7093 12.2907C22.8942 12.4756 22.9987 12.7259 23 12.9874C23.0013 13.2489 22.8994 13.5003 22.7164 13.687L16.7017 19.7017Z" fill="#246175"/>
</svg>
