<svg width="28" height="28" viewBox="0 0 28 28" fill="none" xmlns="http://www.w3.org/2000/svg">
<g clip-path="url(#clip0_53_2545)">
<path d="M25.7857 23.4286H5.35714C4.05286 23.4286 3 22.3757 3 21.0714V6.92855C3 5.62427 4.05286 4.57141 5.35714 4.57141H25.7857C27.09 4.57141 28.1429 5.62427 28.1429 6.92855V21.0714C28.1429 22.3757 27.09 23.4286 25.7857 23.4286ZM5.35714 6.14284C4.91714 6.14284 4.57143 6.48855 4.57143 6.92855V21.0714C4.57143 21.5114 4.91714 21.8571 5.35714 21.8571H25.7857C26.2257 21.8571 26.5714 21.5114 26.5714 21.0714V6.92855C26.5714 6.48855 26.2257 6.14284 25.7857 6.14284H5.35714Z" fill="#121519"/>
<path d="M15.5715 17.08C14.4715 17.08 13.4658 16.64 12.7115 15.8386L4.46152 7.07003C4.16295 6.75574 4.17866 6.25289 4.49295 5.95432C4.80723 5.65574 5.31009 5.67146 5.60866 5.98574L13.8587 14.7543C14.7544 15.7129 16.3887 15.7129 17.2844 14.7543L25.5344 6.00146C25.8329 5.68717 26.3358 5.67146 26.6501 5.97003C26.9644 6.2686 26.9801 6.77146 26.6815 7.08574L18.4315 15.8543C17.6772 16.6557 16.6715 17.0957 15.5715 17.0957V17.08Z" fill="#121519"/>
</g>
<defs>
<clipPath id="clip0_53_2545">
<rect width="28" height="28" fill="white"/>
</clipPath>
</defs>
</svg>
