<svg width="20" height="40" viewBox="0 0 20 40" fill="none" xmlns="http://www.w3.org/2000/svg">
<g clip-path="url(#clip0_18_50)">
<path fill-rule="evenodd" clip-rule="evenodd" d="M0.132224 30.3476C0.20525 30.2746 0.323647 30.2746 0.396673 30.3476L9.52014 39.4711L18.6436 30.3476C18.7166 30.2746 18.835 30.2746 18.9081 30.3476C18.9811 30.4207 18.9811 30.5391 18.9081 30.6121L9.52014 40L0.132224 30.6121C0.0591988 30.5391 0.0591988 30.4207 0.132224 30.3476Z" fill="#1A4756" stroke="#1A4756" stroke-linecap="round"/>
<path fill-rule="evenodd" clip-rule="evenodd" d="M0.132224 19.8761C0.20525 19.8031 0.323647 19.8031 0.396673 19.8761L9.52014 28.9995L18.6436 19.8761C18.7166 19.8031 18.835 19.8031 18.9081 19.8761C18.9811 19.9491 18.9811 20.0675 18.9081 20.1405L9.52014 29.5284L0.132224 20.1405C0.0591988 20.0675 0.0591988 19.9491 0.132224 19.8761Z" fill="#246175" stroke="#246175" stroke-width="0.5" stroke-linecap="round"/>
<path fill-rule="evenodd" clip-rule="evenodd" d="M0.132224 9.38792C0.20525 9.31489 0.323647 9.31489 0.396673 9.38792L9.52014 18.5114L18.6436 9.38792C18.7166 9.31489 18.835 9.31489 18.9081 9.38792C18.9811 9.46094 18.9811 9.57934 18.9081 9.65237L9.52014 19.0403L0.132224 9.65237C0.0591988 9.57934 0.0591988 9.46094 0.132224 9.38792Z" fill="#1A4756"/>
</g>
<defs>
<clipPath id="clip0_18_50">
<rect width="19.0403" height="40" fill="white"/>
</clipPath>
</defs>
</svg>
