<svg width="48" height="48" viewBox="0 0 48 48" fill="none" xmlns="http://www.w3.org/2000/svg">
<path d="M24 48.0001C37.2548 48.0001 48 37.2549 48 24.0001C48 10.7452 37.2548 0 24 0C10.7452 0 0 10.7452 0 24.0001C0 37.2549 10.7452 48.0001 24 48.0001Z" fill="white"/>
<path d="M24 48.0001C37.2548 48.0001 48 37.2549 48 24.0001C48 10.7452 37.2548 0 24 0C10.7452 0 0 10.7452 0 24.0001C0 37.2549 10.7452 48.0001 24 48.0001Z" fill="url(#paint0_linear_18_84)"/>
<path d="M23.9981 8.99597L22.4981 10.996V11.428C21.2153 11.7715 20.0666 12.4953 19.2031 13.504H15.5901C15.5325 13.4939 15.4736 13.4939 15.4161 13.504H15.3851V13.514C15.2739 13.5398 15.1748 13.6029 15.1044 13.6927C15.034 13.7826 14.9965 13.8938 14.9981 14.008C14.9981 14.205 14.9593 14.4 14.8839 14.582C14.8085 14.764 14.698 14.9294 14.5587 15.0687C14.4194 15.208 14.2541 15.3184 14.0721 15.3938C13.8901 15.4692 13.6951 15.508 13.4981 15.508C13.3011 15.508 13.106 15.4692 12.924 15.3938C12.7421 15.3184 12.5767 15.208 12.4374 15.0687C12.2981 14.9294 12.1876 14.764 12.1123 14.582C12.0369 14.4 11.9981 14.205 11.9981 14.008C11.9992 13.941 11.9868 13.8744 11.9616 13.8123C11.9365 13.7502 11.8991 13.6938 11.8517 13.6464C11.8043 13.599 11.7479 13.5616 11.6857 13.5364C11.6236 13.5113 11.5571 13.4989 11.4901 13.5C11.4244 13.501 11.3596 13.515 11.2993 13.5411C11.2391 13.5672 11.1845 13.6049 11.1388 13.6521C11.0932 13.6993 11.0572 13.755 11.0331 13.816C11.0089 13.8771 10.997 13.9423 10.9981 14.008C10.9981 14.821 11.4081 15.564 12.0651 16.029L9.02907 24.701C8.99718 24.7837 8.98786 24.8735 9.00207 24.961C9 24.9766 8.99866 24.9923 8.99807 25.008C8.99807 26.2015 9.47218 27.3461 10.3161 28.19C11.16 29.0339 12.3046 29.508 13.4981 29.508C14.6915 29.508 15.8361 29.0339 16.6801 28.19C17.524 27.3461 17.9981 26.2015 17.9981 25.008C17.9979 24.9956 17.9972 24.9833 17.9961 24.971C18.0128 24.8804 18.0041 24.787 17.9711 24.701L14.9361 16.028C15.4511 15.66 15.8051 15.122 15.9321 14.508H22.4981V16H23.0021V34.0941C21.5731 34.3531 20.3821 35.1491 19.5921 36.0001H16.4981V38.0001H31.5041V36.0001H28.7521C27.8981 35.1631 26.5011 34.377 25.0021 34.108V16H25.4981V14.508H32.0651C32.193 15.1239 32.5506 15.6681 33.0651 16.03L30.0291 24.702C29.9972 24.7847 29.9879 24.8744 30.0021 24.962C30 24.9772 29.9987 24.9926 29.9981 25.008C29.9981 26.2015 30.4722 27.3461 31.3161 28.19C32.16 29.0339 33.3046 29.508 34.4981 29.508C35.6915 29.508 36.8361 29.0339 37.6801 28.19C38.524 27.3461 38.9981 26.2015 38.9981 25.008C38.9979 24.9956 38.9972 24.9833 38.9961 24.971C39.0128 24.8804 39.0041 24.787 38.9711 24.701L35.9361 16.028C36.2616 15.8007 36.5279 15.4985 36.7127 15.1471C36.8974 14.7956 36.9953 14.4051 36.9981 14.008C36.9991 13.9423 36.9872 13.8771 36.9631 13.816C36.9389 13.755 36.903 13.6993 36.8573 13.6521C36.8116 13.6049 36.7571 13.5672 36.6968 13.5411C36.6366 13.515 36.5717 13.501 36.5061 13.5C36.4391 13.4989 36.3725 13.5113 36.3104 13.5364C36.2483 13.5616 36.1918 13.599 36.1445 13.6464C36.0971 13.6938 36.0597 13.7502 36.0345 13.8123C36.0094 13.8744 35.997 13.941 35.9981 14.008C35.9987 14.2715 35.9297 14.5306 35.7982 14.759C35.6667 14.9874 35.4773 15.177 35.2491 15.3088C35.0208 15.4405 34.7619 15.5098 34.4983 15.5095C34.2348 15.5092 33.976 15.4393 33.7481 15.307C33.5199 15.1755 33.3304 14.9862 33.1988 14.7581C33.0671 14.5301 32.9979 14.2713 32.9981 14.008C32.9998 13.8941 32.9625 13.7831 32.8925 13.6932C32.8225 13.6034 32.7239 13.5402 32.6131 13.514V13.504H32.5801C32.5225 13.4939 32.4636 13.4939 32.4061 13.504H28.7811C27.9146 12.5101 26.7717 11.7967 25.4981 11.455V10.996L23.9981 8.99597ZM22.4981 12.476V13.504H20.6181C21.1722 13.0427 21.8107 12.6935 22.4981 12.476ZM25.4981 12.499C26.1746 12.7135 26.8043 13.0541 27.3541 13.503H25.4981V12.499ZM13.4981 13.501C13.3655 13.501 13.2383 13.5537 13.1445 13.6475C13.0507 13.7412 12.9981 13.8684 12.9981 14.001C12.9981 14.1336 13.0507 14.2608 13.1445 14.3546C13.2383 14.4483 13.3655 14.501 13.4981 14.501C13.6307 14.501 13.7579 14.4483 13.8516 14.3546C13.9454 14.2608 13.9981 14.1336 13.9981 14.001C13.9981 13.8684 13.9454 13.7412 13.8516 13.6475C13.7579 13.5537 13.6307 13.501 13.4981 13.501ZM34.4981 13.501C34.3655 13.501 34.2383 13.5537 34.1445 13.6475C34.0508 13.7412 33.9981 13.8684 33.9981 14.001C33.9981 14.1336 34.0508 14.2608 34.1445 14.3546C34.2383 14.4483 34.3655 14.501 34.4981 14.501C34.6307 14.501 34.7579 14.4483 34.8516 14.3546C34.9454 14.2608 34.9981 14.1336 34.9981 14.001C34.9981 13.8684 34.9454 13.7412 34.8516 13.6475C34.7579 13.5537 34.6307 13.501 34.4981 13.501ZM12.9811 16.433C13.3241 16.506 13.6771 16.506 14.0201 16.433L16.8441 24.503H10.1561L12.9811 16.433ZM33.9831 16.433C34.3249 16.5055 34.6782 16.5055 35.0201 16.433L37.8441 24.503H31.1561L33.9831 16.433Z" fill="white"/>
<defs>
<linearGradient id="paint0_linear_18_84" x1="5.2542" y1="0.542711" x2="39.9109" y2="50.2115" gradientUnits="userSpaceOnUse">
<stop stop-color="#FFD979"/>
<stop offset="1" stop-color="#ECAF17"/>
</linearGradient>
</defs>
</svg>
