<svg width="20" height="20" viewBox="0 0 20 20" fill="none" xmlns="http://www.w3.org/2000/svg">
<g clip-path="url(#clip0_53_2492)">
<path d="M1.66748 9.99921H13.3341M13.3341 9.99921L10.4175 7.49921M13.3341 9.99921L10.4175 12.4992" stroke="white" stroke-width="1.5" stroke-linecap="round" stroke-linejoin="round"/>
<path d="M7.50165 5.83335C7.51165 4.02085 7.59248 3.03919 8.23248 2.39919C8.96498 1.66669 10.1433 1.66669 12.5 1.66669H13.3333C15.6908 1.66669 16.8691 1.66669 17.6016 2.39919C18.3333 3.13085 18.3333 4.31002 18.3333 6.66669V13.3334C18.3333 15.69 18.3333 16.8692 17.6016 17.6009C16.8683 18.3334 15.6908 18.3334 13.3333 18.3334H12.5C10.1433 18.3334 8.96498 18.3334 8.23248 17.6009C7.59248 16.9609 7.51165 15.9792 7.50165 14.1667" stroke="white" stroke-width="1.5" stroke-linecap="round"/>
</g>
<defs>
<clipPath id="clip0_53_2492">
<rect width="20" height="20" fill="white"/>
</clipPath>
</defs>
</svg>
