<svg width="20" height="21" viewBox="0 0 20 21" fill="none" xmlns="http://www.w3.org/2000/svg">
<path d="M2.18749 10.2581C2.18749 10.0094 2.28627 9.77097 2.46208 9.59515C2.6379 9.41934 2.87635 9.32057 3.12499 9.32057L14.6094 9.32057L10.5844 5.29635C10.4082 5.12023 10.3093 4.88136 10.3093 4.63229C10.3093 4.38321 10.4082 4.14434 10.5844 3.96822C10.7605 3.7921 10.9994 3.69316 11.2484 3.69316C11.4975 3.69316 11.7364 3.7921 11.9125 3.96822L17.5375 9.59322C17.6249 9.68032 17.6942 9.78381 17.7416 9.89777C17.7889 10.0117 17.8132 10.1339 17.8132 10.2573C17.8132 10.3807 17.7889 10.5028 17.7416 10.6168C17.6942 10.7308 17.6249 10.8343 17.5375 10.9213L11.9125 16.5463C11.8253 16.6336 11.7218 16.7027 11.6078 16.7499C11.4939 16.7971 11.3718 16.8214 11.2484 16.8214C11.1251 16.8214 11.003 16.7971 10.889 16.7499C10.7751 16.7027 10.6716 16.6336 10.5844 16.5463C10.4972 16.4591 10.428 16.3556 10.3808 16.2417C10.3336 16.1277 10.3093 16.0056 10.3093 15.8823C10.3093 15.759 10.3336 15.6368 10.3808 15.5229C10.428 15.409 10.4972 15.3054 10.5844 15.2182L14.6094 11.1956L3.12499 11.1956C2.87635 11.1956 2.6379 11.0968 2.46208 10.921C2.28627 10.7452 2.18749 10.5067 2.18749 10.2581Z" fill="#246175"/>
</svg>
