<svg width="28" height="28" viewBox="0 0 28 28" fill="none" xmlns="http://www.w3.org/2000/svg">
<path fill-rule="evenodd" clip-rule="evenodd" d="M6.6885 2.38349C8.10833 0.971823 10.4463 1.22266 11.6352 2.81166L13.1075 4.77632C14.0758 6.06899 13.9895 7.87499 12.8403 9.01716L12.5627 9.29482C12.5313 9.4114 12.5281 9.53376 12.5533 9.65182C12.6268 10.1278 13.0247 11.1358 14.6907 12.7925C16.3567 14.4492 17.3717 14.8458 17.8547 14.9205C17.9762 14.9463 18.1023 14.9427 18.2222 14.91L18.6982 14.4363C19.7202 13.4213 21.2882 13.2312 22.5528 13.9183L24.7812 15.1317C26.691 16.1677 27.1728 18.7623 25.6095 20.3175L23.9517 21.9648C23.429 22.484 22.7267 22.9168 21.8703 22.9973C19.7587 23.1945 14.8388 22.9425 9.667 17.801C4.8405 13.0013 3.91417 8.81532 3.79633 6.75266C3.738 5.70966 4.23033 4.82766 4.858 4.20466L6.6885 2.38349ZM10.2352 3.86049C9.64366 3.07066 8.54233 3.00766 7.92166 3.62482L6.09 5.44482C5.705 5.82749 5.52066 6.24982 5.544 6.65349C5.63733 8.29266 6.384 12.0692 10.9013 16.5608C15.6403 21.2718 20.0165 21.413 21.7082 21.2543C22.0535 21.2228 22.3965 21.0432 22.7173 20.7247L24.374 19.0762C25.0483 18.4065 24.9002 17.1862 23.9458 16.6682L21.7175 15.456C21.1015 15.1223 20.3805 15.232 19.9325 15.6777L19.4017 16.2062L18.7833 15.5855C19.4017 16.2062 19.4005 16.2073 19.3993 16.2073L19.3982 16.2097L19.3947 16.2132L19.3865 16.2202L19.369 16.2365C19.3194 16.2818 19.2663 16.3231 19.2103 16.3602C19.117 16.422 18.9933 16.4908 18.8382 16.548C18.5232 16.6658 18.1055 16.7288 17.5898 16.6495C16.5783 16.4943 15.2378 15.8048 13.4563 14.0338C11.676 12.2628 10.9807 10.9305 10.8243 9.92016C10.7438 9.40449 10.808 8.98682 10.927 8.67182C10.993 8.4948 11.0867 8.3294 11.2047 8.18182L11.242 8.14099L11.2583 8.12349L11.2653 8.11649L11.2688 8.11299L11.2712 8.11066L11.6072 7.77699C12.1065 7.27882 12.1765 6.45399 11.7063 5.82516L10.2352 3.86049Z" fill="#121519"/>
</svg>
